<svg xmlns="http://www.w3.org/2000/svg" xmlns:xlink="http://www.w3.org/1999/xlink" width="500" zoomAndPan="magnify" viewBox="0 0 375 374.999991" height="500" preserveAspectRatio="xMidYMid meet" version="1.0"><defs><g/><clipPath id="53ee8a9acd"><path d="M 49.421875 157 L 102.671875 157 L 102.671875 210.246094 L 49.421875 210.246094 Z M 49.421875 157 " clip-rule="nonzero"/></clipPath></defs><g clip-path="url(#53ee8a9acd)"><path fill="#000000" d="M 101.570312 177.445312 C 101.578125 177.410156 101.582031 177.375 101.585938 177.335938 L 102.632812 169.945312 C 102.644531 169.886719 102.652344 169.824219 102.652344 169.761719 C 102.652344 169.289062 102.265625 168.902344 101.789062 168.902344 L 95.007812 168.902344 C 95.007812 168.902344 95.003906 168.902344 95.003906 168.902344 C 95.003906 168.902344 95 168.902344 95 168.902344 L 88.226562 168.902344 C 88.222656 168.902344 88.222656 168.902344 88.21875 168.902344 C 88.214844 168.902344 88.214844 168.902344 88.210938 168.902344 L 81.445312 168.902344 C 81.441406 168.902344 81.4375 168.902344 81.433594 168.902344 C 81.429688 168.902344 81.425781 168.902344 81.421875 168.902344 L 74.664062 168.902344 C 74.660156 168.902344 74.652344 168.902344 74.648438 168.902344 C 74.640625 168.902344 74.636719 168.902344 74.632812 168.902344 L 67.878906 168.902344 C 67.875 168.902344 67.867188 168.902344 67.863281 168.902344 C 67.855469 168.902344 67.847656 168.902344 67.84375 168.902344 L 61.988281 168.902344 L 58.402344 159.484375 C 58.300781 159.210938 58.074219 159.023438 57.8125 158.953125 L 50.609375 157.117188 C 50.148438 157 49.679688 157.277344 49.5625 157.738281 C 49.445312 158.195312 49.722656 158.664062 50.183594 158.78125 L 56.953125 160.507812 L 61.828125 173.304688 L 66.285156 185.019531 C 66.296875 185.058594 66.3125 185.09375 66.328125 185.128906 L 67.035156 186.988281 C 67.046875 187.027344 67.0625 187.066406 67.078125 187.101562 L 69.050781 192.277344 L 67.039062 194.199219 C 65.292969 195.867188 64.164062 197.460938 63.65625 198.816406 C 63.328125 199.691406 63.25 200.492188 63.417969 201.1875 C 63.605469 201.953125 64.070312 202.5625 64.8125 202.972656 C 65.0625 203.109375 65.339844 203.222656 65.648438 203.308594 C 65 204.042969 64.609375 205.007812 64.609375 206.058594 C 64.609375 207.1875 65.058594 208.210938 65.789062 208.964844 L 65.835938 209.019531 C 66.597656 209.777344 67.644531 210.246094 68.800781 210.246094 C 69.957031 210.246094 71.007812 209.777344 71.765625 209.019531 L 71.765625 209.015625 C 72.523438 208.257812 72.992188 207.210938 72.992188 206.058594 C 72.992188 205.105469 72.671875 204.226562 72.128906 203.523438 L 90.042969 203.523438 C 89.535156 204.214844 89.234375 205.066406 89.234375 205.988281 C 89.234375 207.117188 89.683594 208.140625 90.410156 208.894531 L 90.460938 208.949219 C 91.21875 209.707031 92.269531 210.171875 93.425781 210.171875 C 94.582031 210.171875 95.632812 209.703125 96.390625 208.949219 L 96.390625 208.945312 C 97.148438 208.1875 97.617188 207.140625 97.617188 205.988281 C 97.617188 205.066406 97.316406 204.214844 96.808594 203.523438 L 98.40625 203.523438 C 98.882812 203.523438 99.269531 203.136719 99.269531 202.664062 C 99.269531 202.1875 98.882812 201.800781 98.40625 201.800781 C 98.40625 201.800781 67.363281 201.800781 67.363281 201.800781 C 66.605469 201.800781 66.035156 201.683594 65.644531 201.46875 C 65.34375 201.304688 65.15625 201.070312 65.089844 200.78125 C 65 200.425781 65.058594 199.960938 65.265625 199.410156 C 65.683594 198.289062 66.671875 196.921875 68.230469 195.433594 L 70.4375 193.324219 L 74.675781 192.902344 C 74.714844 192.902344 74.753906 192.898438 74.792969 192.890625 L 81.460938 192.226562 C 81.5 192.226562 81.539062 192.222656 81.574219 192.214844 L 88.246094 191.550781 C 88.285156 191.550781 88.324219 191.546875 88.359375 191.539062 L 95.035156 190.875 C 95.070312 190.875 95.109375 190.871094 95.144531 190.867188 L 99.03125 190.480469 C 99.429688 190.453125 99.769531 190.152344 99.828125 189.742188 L 100.507812 184.953125 C 100.515625 184.914062 100.519531 184.878906 100.523438 184.839844 Z M 70.550781 207.804688 C 70.105469 208.25 69.484375 208.527344 68.804688 208.527344 C 68.121094 208.527344 67.503906 208.25 67.054688 207.804688 L 67.015625 207.769531 C 66.59375 207.324219 66.332031 206.722656 66.332031 206.058594 C 66.332031 205.378906 66.609375 204.761719 67.054688 204.316406 C 67.503906 203.871094 68.121094 203.59375 68.804688 203.59375 C 69.484375 203.59375 70.101562 203.871094 70.550781 204.316406 L 70.589844 204.355469 C 71.015625 204.796875 71.273438 205.398438 71.273438 206.058594 C 71.273438 206.746094 70.996094 207.359375 70.550781 207.804688 Z M 95.171875 204.246094 L 95.210938 204.28125 C 95.636719 204.726562 95.894531 205.324219 95.894531 205.988281 C 95.894531 206.671875 95.621094 207.289062 95.171875 207.730469 C 94.726562 208.175781 94.105469 208.453125 93.425781 208.453125 C 92.742188 208.453125 92.125 208.175781 91.679688 207.730469 L 91.636719 207.695312 C 91.214844 207.253906 90.953125 206.648438 90.953125 205.988281 C 90.953125 205.304688 91.230469 204.6875 91.679688 204.242188 C 92.125 203.796875 92.742188 203.523438 93.425781 203.523438 C 94.105469 203.523438 94.726562 203.800781 95.171875 204.246094 Z M 70.625 191.589844 L 68.722656 186.59375 L 68.722656 185.632812 L 73.789062 185.632812 L 73.789062 191.273438 Z M 87.355469 176.40625 L 82.292969 176.40625 L 82.292969 170.621094 L 87.355469 170.621094 C 87.355469 171.757812 87.355469 173.917969 87.355469 176.40625 Z M 89.082031 170.621094 L 94.144531 170.621094 L 94.144531 176.410156 L 89.078125 176.410156 L 89.078125 170.621094 Z M 82.292969 178.128906 L 87.359375 178.128906 C 87.359375 180.050781 87.359375 182.070312 87.359375 183.914062 L 82.292969 183.914062 Z M 80.574219 183.914062 L 75.511719 183.914062 L 75.511719 178.125 L 80.574219 178.125 Z M 80.574219 176.40625 L 75.511719 176.40625 L 75.511719 170.621094 L 80.574219 170.621094 Z M 73.789062 176.40625 L 68.722656 176.40625 L 68.722656 170.621094 L 73.789062 170.621094 Z M 73.789062 178.128906 L 73.789062 183.914062 L 68.722656 183.914062 L 68.722656 178.128906 Z M 67 182.070312 L 65.5 178.125 L 67 178.125 Z M 75.507812 185.632812 L 80.570312 185.632812 L 80.570312 190.597656 L 75.507812 191.101562 Z M 82.292969 185.632812 L 87.359375 185.632812 C 87.359375 187.496094 87.359375 189.042969 87.359375 189.921875 L 82.292969 190.425781 Z M 89.082031 185.632812 L 94.144531 185.632812 L 94.144531 189.246094 L 89.078125 189.75 L 89.078125 185.632812 Z M 89.082031 183.914062 L 89.082031 178.125 L 94.144531 178.125 L 94.144531 183.914062 Z M 95.867188 178.128906 L 99.738281 178.128906 L 98.921875 183.914062 L 95.867188 183.914062 Z M 99.980469 176.40625 L 95.863281 176.40625 L 95.863281 170.621094 L 100.800781 170.621094 Z M 67 170.621094 L 67 176.410156 L 64.847656 176.410156 L 63.433594 172.703125 L 62.640625 170.625 L 67 170.625 Z M 95.867188 189.074219 L 95.867188 185.632812 L 98.679688 185.632812 L 98.222656 188.839844 Z M 95.867188 189.074219 " fill-opacity="1" fill-rule="nonzero"/></g><g fill="#000000" fill-opacity="1"><g transform="translate(103.487445, 201.374987)"><g><path d="M 13.359375 8.859375 L 11.0625 5.375 C 11.164062 5.238281 11.300781 5.066406 11.46875 4.859375 C 11.632812 4.660156 11.988281 4.28125 12.53125 3.71875 C 13.082031 3.15625 13.613281 2.660156 14.125 2.234375 C 14.644531 1.804688 15.242188 1.421875 15.921875 1.078125 C 16.609375 0.734375 17.238281 0.5625 17.8125 0.5625 L 17.8125 0.359375 C 12.832031 -0.597656 8.8125 -3.054688 5.75 -7.015625 C 2.695312 -10.972656 1.171875 -15.679688 1.171875 -21.140625 C 1.171875 -27.285156 3.21875 -32.46875 7.3125 -36.6875 C 11.414062 -40.90625 16.382812 -43.015625 22.21875 -43.015625 C 28.09375 -43.015625 33.0625 -40.90625 37.125 -36.6875 C 41.1875 -32.46875 43.21875 -27.285156 43.21875 -21.140625 C 43.21875 -16.128906 41.867188 -11.710938 39.171875 -7.890625 C 36.472656 -4.066406 32.921875 -1.488281 28.515625 -0.15625 L 28.515625 0.046875 C 28.722656 0.046875 29.628906 0.207031 31.234375 0.53125 C 32.835938 0.863281 34.117188 1.03125 35.078125 1.03125 C 36.367188 1.03125 37.539062 0.796875 38.59375 0.328125 C 39.65625 -0.128906 40.394531 -0.582031 40.8125 -1.03125 L 41.421875 -1.734375 L 44.4375 4.765625 C 44.375 4.929688 44.265625 5.140625 44.109375 5.390625 C 43.953125 5.648438 43.601562 6.101562 43.0625 6.75 C 42.519531 7.40625 41.914062 7.988281 41.25 8.5 C 40.582031 9.007812 39.691406 9.46875 38.578125 9.875 C 37.472656 10.289062 36.285156 10.5 35.015625 10.5 C 32.941406 10.5 30.398438 9.832031 27.390625 8.5 C 24.390625 7.164062 21.796875 6.5 19.609375 6.5 C 18.410156 6.5 17.289062 6.695312 16.25 7.09375 C 15.207031 7.488281 14.46875 7.890625 14.03125 8.296875 Z M 11.578125 -21.140625 C 11.578125 -19.503906 11.765625 -17.976562 12.140625 -16.5625 C 12.515625 -15.144531 13.101562 -13.851562 13.90625 -12.6875 C 14.707031 -11.53125 15.816406 -10.617188 17.234375 -9.953125 C 18.648438 -9.285156 20.3125 -8.953125 22.21875 -8.953125 C 25.800781 -8.953125 28.460938 -10.113281 30.203125 -12.4375 C 31.953125 -14.757812 32.828125 -17.660156 32.828125 -21.140625 C 32.828125 -24.585938 31.9375 -27.476562 30.15625 -29.8125 C 28.382812 -32.15625 25.738281 -33.328125 22.21875 -33.328125 C 18.738281 -33.328125 16.09375 -32.148438 14.28125 -29.796875 C 12.476562 -27.441406 11.578125 -24.554688 11.578125 -21.140625 Z M 11.578125 -21.140625 "/></g></g></g><g fill="#000000" fill-opacity="1"><g transform="translate(143.063063, 201.374987)"><g><path d="M 11.625 -26.265625 L 11.625 -13.78125 C 11.625 -11.175781 12.015625 -9.328125 12.796875 -8.234375 C 13.585938 -7.148438 14.921875 -6.609375 16.796875 -6.609375 C 18.671875 -6.609375 20 -7.148438 20.78125 -8.234375 C 21.570312 -9.328125 21.96875 -11.175781 21.96875 -13.78125 L 21.96875 -26.265625 L 31.03125 -26.265625 L 31.03125 -11.578125 C 31.03125 -7.203125 29.894531 -4.050781 27.625 -2.125 C 25.351562 -0.195312 21.742188 0.765625 16.796875 0.765625 C 11.847656 0.765625 8.238281 -0.195312 5.96875 -2.125 C 3.695312 -4.050781 2.5625 -7.203125 2.5625 -11.578125 L 2.5625 -26.265625 Z M 11.625 -26.265625 "/></g></g></g><g fill="#000000" fill-opacity="1"><g transform="translate(171.835641, 201.374987)"><g><path d="M 3.9375 -40.90625 C 5 -41.96875 6.265625 -42.5 7.734375 -42.5 C 9.203125 -42.5 10.460938 -41.96875 11.515625 -40.90625 C 12.578125 -39.851562 13.109375 -38.59375 13.109375 -37.125 C 13.109375 -35.65625 12.578125 -34.390625 11.515625 -33.328125 C 10.460938 -32.273438 9.203125 -31.75 7.734375 -31.75 C 6.265625 -31.75 5 -32.273438 3.9375 -33.328125 C 2.882812 -34.390625 2.359375 -35.65625 2.359375 -37.125 C 2.359375 -38.59375 2.882812 -39.851562 3.9375 -40.90625 Z M 3.078125 -26.265625 L 3.078125 0 L 12.140625 0 L 12.140625 -26.265625 Z M 3.078125 -26.265625 "/></g></g></g><g fill="#000000" fill-opacity="1"><g transform="translate(182.483687, 201.374987)"><g><path d="M 17.046875 -19.609375 C 15.335938 -19.609375 13.867188 -18.976562 12.640625 -17.71875 C 11.410156 -16.457031 10.796875 -14.9375 10.796875 -13.15625 C 10.796875 -11.351562 11.410156 -9.816406 12.640625 -8.546875 C 13.867188 -7.285156 15.335938 -6.65625 17.046875 -6.65625 C 17.867188 -6.65625 18.644531 -6.753906 19.375 -6.953125 C 20.113281 -7.160156 20.65625 -7.367188 21 -7.578125 L 21.453125 -7.890625 L 24.53125 -1.59375 C 24.289062 -1.414062 23.957031 -1.195312 23.53125 -0.9375 C 23.101562 -0.6875 22.128906 -0.34375 20.609375 0.09375 C 19.085938 0.539062 17.457031 0.765625 15.71875 0.765625 C 11.863281 0.765625 8.472656 -0.585938 5.546875 -3.296875 C 2.628906 -6.015625 1.171875 -9.269531 1.171875 -13.0625 C 1.171875 -16.882812 2.628906 -20.164062 5.546875 -22.90625 C 8.472656 -25.65625 11.863281 -27.03125 15.71875 -27.03125 C 17.457031 -27.03125 19.0625 -26.828125 20.53125 -26.421875 C 22 -26.015625 23.039062 -25.601562 23.65625 -25.1875 L 24.53125 -24.578125 L 21.453125 -18.375 C 20.328125 -19.195312 18.859375 -19.609375 17.046875 -19.609375 Z M 17.046875 -19.609375 "/></g></g></g><g fill="#000000" fill-opacity="1"><g transform="translate(202.808387, 201.374987)"><g><path d="M 33.078125 -26.265625 L 20.578125 -13.71875 L 34.3125 0 L 22.625 0 L 12.140625 -10.5 L 12.140625 0 L 3.078125 0 L 3.078125 -44.03125 L 12.140625 -44.03125 L 12.140625 -17.109375 L 21.296875 -26.265625 Z M 33.078125 -26.265625 "/></g></g></g><g fill="#000000" fill-opacity="1"><g transform="translate(231.068964, 201.374987)"><g><path d="M 38 0 L 36 -25.03125 L 35.734375 -25.03125 L 27.09375 -0.25 L 21.359375 -0.25 L 12.703125 -25.03125 L 12.4375 -25.03125 L 10.453125 0 L 0.8125 0 L 4.609375 -42.25 L 14.84375 -42.25 L 24.21875 -17.875 L 33.59375 -42.25 L 43.828125 -42.25 L 47.625 0 Z M 38 0 "/></g></g></g><g fill="#000000" fill-opacity="1"><g transform="translate(274.68933, 201.374987)"><g><path d="M 4.859375 -3.25 C 2.398438 -5.925781 1.171875 -9.207031 1.171875 -13.09375 C 1.171875 -16.988281 2.398438 -20.285156 4.859375 -22.984375 C 7.316406 -25.679688 10.441406 -27.03125 14.234375 -27.03125 C 17.710938 -27.03125 20.582031 -25.941406 22.84375 -23.765625 L 22.84375 -26.265625 L 31.90625 -26.265625 L 31.90625 0 L 22.9375 0 L 22.9375 -2.96875 L 22.84375 -2.96875 C 20.582031 -0.476562 17.710938 0.765625 14.234375 0.765625 C 10.441406 0.765625 7.316406 -0.570312 4.859375 -3.25 Z M 12.5625 -17.5625 C 11.382812 -16.40625 10.796875 -14.921875 10.796875 -13.109375 C 10.796875 -11.296875 11.359375 -9.816406 12.484375 -8.671875 C 13.617188 -7.535156 15.109375 -6.96875 16.953125 -6.96875 C 18.722656 -6.96875 20.179688 -7.546875 21.328125 -8.703125 C 22.472656 -9.867188 23.046875 -11.335938 23.046875 -13.109375 C 23.046875 -14.921875 22.457031 -16.40625 21.28125 -17.5625 C 20.101562 -18.71875 18.660156 -19.296875 16.953125 -19.296875 C 15.210938 -19.296875 13.75 -18.71875 12.5625 -17.5625 Z M 12.5625 -17.5625 "/></g></g></g><g fill="#000000" fill-opacity="1"><g transform="translate(304.844281, 201.374987)"><g><path d="M 3.078125 0 L 3.078125 -26.265625 L 12.140625 -26.265625 L 12.140625 -22.484375 L 12.234375 -22.484375 C 12.304688 -22.617188 12.414062 -22.785156 12.5625 -22.984375 C 12.71875 -23.191406 13.050781 -23.550781 13.5625 -24.0625 C 14.082031 -24.570312 14.628906 -25.03125 15.203125 -25.4375 C 15.785156 -25.851562 16.535156 -26.222656 17.453125 -26.546875 C 18.378906 -26.867188 19.320312 -27.03125 20.28125 -27.03125 C 21.269531 -27.03125 22.238281 -26.894531 23.1875 -26.625 C 24.144531 -26.351562 24.847656 -26.082031 25.296875 -25.8125 L 26.015625 -25.390625 L 22.21875 -17.71875 C 21.09375 -18.675781 19.523438 -19.15625 17.515625 -19.15625 C 16.421875 -19.15625 15.476562 -18.914062 14.6875 -18.4375 C 13.90625 -17.957031 13.351562 -17.375 13.03125 -16.6875 C 12.707031 -16.007812 12.476562 -15.429688 12.34375 -14.953125 C 12.207031 -14.472656 12.140625 -14.097656 12.140625 -13.828125 L 12.140625 0 Z M 3.078125 0 "/></g></g></g><g fill="#000000" fill-opacity="1"><g transform="translate(325.52737, 201.374987)"><g><path d="M 4.609375 -26.265625 L 4.609375 -36.046875 L 13.671875 -36.046875 L 13.671875 -26.265625 L 19.203125 -26.265625 L 19.203125 -19.359375 L 13.671875 -19.359375 L 13.671875 -11.015625 C 13.671875 -8.585938 14.351562 -7.375 15.71875 -7.375 C 16.0625 -7.375 16.421875 -7.441406 16.796875 -7.578125 C 17.171875 -7.710938 17.460938 -7.847656 17.671875 -7.984375 L 17.96875 -8.1875 L 20.21875 -0.875 C 18.28125 0.21875 16.0625 0.765625 13.5625 0.765625 C 11.863281 0.765625 10.398438 0.46875 9.171875 -0.125 C 7.941406 -0.726562 7.007812 -1.53125 6.375 -2.53125 C 5.738281 -3.539062 5.285156 -4.597656 5.015625 -5.703125 C 4.742188 -6.816406 4.609375 -8.003906 4.609375 -9.265625 L 4.609375 -19.359375 L 0.8125 -19.359375 L 0.8125 -26.265625 Z M 4.609375 -26.265625 "/></g></g></g><g fill="#000000" fill-opacity="1"><g transform="translate(340.936931, 201.374987)"><g><path d="M 8.90625 -10.953125 C 10.539062 -10.953125 11.929688 -10.378906 13.078125 -9.234375 C 14.222656 -8.097656 14.796875 -6.707031 14.796875 -5.0625 C 14.796875 -3.457031 14.222656 -2.082031 13.078125 -0.9375 C 11.929688 0.195312 10.539062 0.765625 8.90625 0.765625 C 7.300781 0.765625 5.925781 0.195312 4.78125 -0.9375 C 3.644531 -2.082031 3.078125 -3.457031 3.078125 -5.0625 C 3.078125 -6.707031 3.644531 -8.097656 4.78125 -9.234375 C 5.925781 -10.378906 7.300781 -10.953125 8.90625 -10.953125 Z M 8.90625 -10.953125 "/></g></g></g></svg>